<svg xmlns="http://www.w3.org/2000/svg" width="1024" height="160">
  <g>
    <g>
      <path fill="#00f" d="M934 40.1h-22.3l5.6 8.3 5.7 8.3 5.6 8.2 5.7 8.3 5.6 8.2 5.6 8.3 4.3 6.2-5.7 8.3-5.6 8.2-5.6 8.3-5.7 8.3-5.6 8.2-5.6 8.3-5.6 8.3-.8 1h22l5.5-8.3 5.5-8.4 5.5-8.3 5.5-8.4 5.5-8.3 2-2.9 5.6 8.3 5.6 8.2 5.6 8.3 5.6 8.3 5.6 8.3 2.3 3.2h22.6l-5.7-8.2-5.7-8.2-5.7-8.2-5.7-8.2-5.7-8.3-5.7-8.2-5.7-8.2-1-1.6 5.6-8.2 5.8-8.2 5.7-8.2 5.7-8.2 5.7-8.2 5.7-8.2 4.4-6.4H990l-5.6 8.3-5.5 8.3-5.6 8.3-5.6 8.3-5.7 8.5-5.6-8.3-5.6-8.3-5.5-8.3-5.6-8.3-5.7-8.5M833.5 36l-3.8.2-3.7.3-3.5.6-3.4.8-3.3 1-3.1 1.2-3 1.5-2.8 1.7-2.7 2-2.6 2-2.4 2.4-2.2 2.6-2.2 2.8-1.9 3-1.7 3.2-1.6 3.3-1.3 3.5-1.2 3.7-1 3.8-.9 4-.6 4.3-.5 4.4-.2 4.5-.1 4.8v4.7l.3 4.6.5 4.3.6 4.2.9 4 1 4 1.2 3.6 1.3 3.5 1.6 3.3 1.7 3.1 2 3 2 2.8 2.3 2.6 2.4 2.3 2.6 2.2 2.7 1.9 2.8 1.7 3 1.5 3.1 1.2 3.3 1 3.4.8 3.5.6 3.7.3 3.8.1 3.9-.1 3.7-.3 3.5-.6 3.5-.8 3.2-1 3.2-1.2 3-1.5 2.8-1.7 2.7-1.9 2.5-2.1 2.4-2.4 2.3-2.6 2.1-2.7 2-3 1.7-3.1 1.5-3.4 1.4-3.5 1.2-3.6 1-3.9.8-4 .6-4.2.5-4.4.3-4.6v-9.5l-.3-4.5-.5-4.5-.6-4.2-.8-4-1-3.9-1.2-3.7-1.4-3.5-1.5-3.3-1.8-3.2-1.9-3-2-2.7-2.4-2.6-2.4-2.4-2.5-2.1-2.7-2-2.9-1.6-3-1.5-3-1.2-3.3-1-3.5-.8-3.5-.6-3.7-.3zm0 16.8h2.4l2.3.3 2.3.4 2.1.5 2 .8 2 .8 1.8 1 1.8 1.3 1.6 1.3 1.6 1.6 1.4 1.6 1.4 1.9 1.2 2 1.2 2 1 2.4 1 2.4.8 2.5.7 2.7.6 2.8.5 3 .4 3.1.2 3.3.2 3.4v7l-.2 3.4-.2 3.3-.4 3-.5 3-.6 2.9-.7 2.7-.9 2.5-.9 2.5-1 2.2-1.2 2.2-1.3 2-1.3 1.9-1.5 1.6-1.6 1.6-1.6 1.4-1.7 1.2-1.9 1-2 .9-2 .7-2 .6-2.3.4-2.3.2-2.4.1h-2.4l-2.3-.3-2.2-.4-2-.6-2.1-.7-2-.9-1.8-1-1.7-1.2-1.6-1.4-1.6-1.6-1.5-1.6-1.3-1.9-1.3-2-1.1-2.2-1-2.2-1-2.5-.8-2.5-.8-2.7-.6-2.9-.5-3-.3-3-.3-3.3-.2-3.4v-7l.2-3.4.2-3.3.4-3 .5-3 .6-2.9.7-2.7.9-2.5.9-2.4 1-2.3 1.2-2.1 1.2-2 1.4-1.9 1.4-1.6 1.6-1.6 1.6-1.3 1.8-1.2 1.8-1 2-1 2-.7 2-.5 2.3-.4 2.3-.3zM717 1.6h-48.4v15.7h29.6V139h-38.7v15.8h95.9V139h-38.5V1.6"/>
      <path fill="red" d="M526.6 6.7v148.1h59.5l3.5-.3 3.4-.4 3.2-.6 3-.7 3-.9 2.9-1 2.6-1.3 2.6-1.3 2.4-1.6 2.2-1.7 2.2-1.8 2-2 1.7-2.2 1.6-2.3 1.5-2.4 1.3-2.5 1-2.7 1-2.8.8-2.9.6-3 .4-3.2.3-3.3V108l-.1-2.2-.3-2.2-.3-2-.4-2-.5-2-.7-2-.7-1.8-.8-1.7-.9-1.7-1-1.7-1-1.5-1.3-1.5-1.2-1.4-1.4-1.4-1.4-1.2-1.5-1.2-1.7-1-1.7-1-1.7-1-2-.8-1.9-.8-2-.6-2.1-.6 1.7-1 1.6-.9 1.6-1 1.4-1 1.4-1 1.4-1 1.2-1 1.2-1.2 1-1.1 1-1.2 1-1.1.8-1.3.8-1.2.7-1.3.6-1.4.6-1.4.5-1.4.4-1.5.4-1.6.3-1.6.2-1.6.2-1.7v-6.5l-.2-2.9-.4-2.7-.5-2.7-.7-2.5-.9-2.3-1-2.3-1.1-2.1-1.3-2-1.4-1.9-1.7-1.7-1.7-1.7-2-1.5-2-1.3-2.2-1.3-2.3-1-2.5-1-2.6-.9-2.8-.7-2.9-.6-3-.5-3.3-.3-3.3-.2h-53.5zm19.8 17.7h32.9l2.2.1 2 .2 2 .3 1.7.3 1.7.4 1.7.4 1.5.6 1.4.6 1.3.7 1.2.7 1 .9 1 .9 1 1 .8 1 .8 1.2.6 1.2.6 1.3.5 1.4.4 1.5.3 1.6.2 1.7.1 1.7v3.7l-.1 1.7-.2 1.7-.4 1.5-.4 1.5-.6 1.5-.6 1.3-.7 1.3-.9 1.2-.9 1-1 1.1-1.1 1-1.3.9-1.3.8-1.4.7-1.5.7-1.6.6-1.7.5-1.8.4-2 .4-1.9.2-2 .2-2.3.1h-31.3v-40zm0 61.7h34.3l2.5.2 2.3.2 2.2.3 2.2.4 2 .4 1.8.6 1.8.6 1.6.7 1.6.8 1.4.9 1.3 1 1.2 1 1.1 1.2 1 1.2.9 1.3.8 1.4.6 1.6.6 1.6.5 1.7.4 1.7.2 2 .2 1.9v4.2l-.2 2-.2 2-.4 2-.4 1.7-.6 1.7-.6 1.6-.8 1.5-.8 1.4-1 1.3-1 1.3-1.1 1.1-1.3 1-1.3 1-1.5.8-1.5.8-1.7.7-1.7.6-1.9.5-2 .4-2 .3-2.2.2-2.3.2h-36v-50z"/>
      <path fill="#00f" d="M447.2 36l-3.5.2-3.5.3-3.3.6-3.1.8-3 1-3 1.3-2.8 1.5-2.7 1.7-2.6 2-2.4 2.2-2.4 2.4-2.2 2.6-2 2.9-2 3-1.6 3.2-1.5 3.3-1.4 3.5-1.1 3.6-1 3.8-.8 4-.6 4.1-.5 4.3-.3 4.5v9.3l.3 4.5.4 4.3.6 4.2.8 4 1 3.8 1.1 3.7 1.4 3.5 1.4 3.3 1.7 3.2 1.8 3 2 2.8 2.2 2.7 2.3 2.4 2.4 2.1 2.6 2 2.6 1.7 2.8 1.5 2.9 1.2 3 1 3.2.9 3.2.5 3.4.4 3.6.1h3l2.8-.3 2.8-.3 2.7-.5 2.7-.6 2.5-.8 2.5-.9 2.5-1 2.3-1.2 2.3-1.3 2.2-1.5 2.1-1.6 2-1.7 2-1.8 1.7-2 1.6-2 1.5-2 1.4-2.2 1.3-2.3 1-2.4 1-2.5 1-2.6.7-2.6.6-2.8H474l-.5 1.5-.5 1.5-.5 1.5-.6 1.3-.7 1.4-.7 1.2-.8 1.2-.9 1.2-.9 1-1 1-1 1-1 1-1.2.8-1.1.8-1.2.7-1.3.6-1.2.5-1.3.5-1.4.4-1.4.3-1.4.3-1.5.2h-1.5l-1.5.1h-2.3l-2.1-.3-2.1-.3-2-.5-2-.7-1.8-.8-1.7-.9-1.7-1-1.6-1.3-1.5-1.4-1.5-1.5-1.3-1.6-1.3-1.8-1.1-1.9-1-2-1-2-.9-2.2-.7-2.3-.6-2.4-.5-2.5-.4-2.6-.2-2.7-.2-2.8v-3.6h75.1v-.7l.1-.3v-2.3l.1-.3v-9.6l-.3-4.4-.4-4.1-.7-4-.7-3.8-1-3.7-1.1-3.4-1.3-3.3-1.5-3.2-1.7-3-1.8-2.8-2-2.6-2.2-2.5-2.3-2.2-2.4-2-2.6-1.8-2.7-1.6-2.9-1.4-3-1.2-3.1-1-3.3-.7-3.4-.5-3.5-.3zm.7 16.5l2.1.1 2 .2 2 .3 1.9.5 1.8.5 1.7.7 1.7.8 1.5 1 1.5 1 1.4 1.2 1.3 1.4 1.2 1.4 1.2 1.6 1 1.6 1 1.8.8 1.9.8 2 .6 2 .6 2.2.4 2.3.4 2.4.2 2.5.2 2.6v2.7h-55.7l.1-2.7.3-2.7.4-2.5.4-2.4.6-2.2.6-2.2.8-2.1.8-2 .9-1.9 1-1.7 1.1-1.7 1.2-1.5L429 60l1.3-1.3 1.4-1.2 1.5-1 1.6-1 1.6-.8 1.8-.7 1.8-.6 1.8-.4 2-.3 2-.2zM345.1 1.6v56l-1-1.7-1-1.7-1.2-1.7-1-1.5-1.2-1.5-1.2-1.4-1.2-1.3-1.2-1.2-1.3-1.2-1.3-1-1.3-1-1.3-1-1.4-.9-1.4-.7-1.5-.7-1.5-.7-1.5-.5-1.5-.5-1.6-.4-1.6-.3-1.7-.3-1.7-.2-1.7-.1h-5.1l-3.2.4-3.1.6-3 .8-2.9 1-2.7 1.3-2.7 1.5-2.5 1.7-2.5 2-2.3 2.2-2.2 2.4-2 2.6-2 2.9-1.7 3-1.7 3.2-1.4 3.3-1.3 3.5-1 3.6-1 3.8-.7 4-.6 4.1-.4 4.3-.3 4.5v9.2l.3 4.5.4 4.3.6 4.1.7 4 1 3.8 1 3.7 1.3 3.5 1.4 3.3 1.7 3.2 1.7 3 2 2.9 2 2.6 2.2 2.5 2.3 2.2 2.5 2 2.5 1.6 2.7 1.5 2.7 1.3 2.9 1 3 .9 3 .5 3.3.4 3.3.1h1.8l1.8-.1 1.7-.2 1.6-.3 1.7-.3 1.6-.5 1.5-.5 1.6-.5 1.5-.7 1.4-.7 1.5-.8 1.4-.9 1.3-1 1.4-1 1.2-1 1.3-1.2 1.2-1.3 1.2-1.3 1.1-1.4 1.1-1.5 1-1.5 1-1.6 1-1.7 1-1.8v17.7h18.9V1.6h-10zM315.3 53h2.3l2.3.3 2.1.4 2 .5 2 .7 1.9 1 1.8 1 1.6 1.1 1.6 1.4 1.5 1.5 1.4 1.7 1.3 1.8 1.2 2 1.1 2 1 2.3 1 2.4.7 2.6.7 2.6.6 2.9.4 3 .4 3 .3 3.3.1 3.4v7l-.1 3.4-.3 3.3-.4 3.1-.4 3-.6 2.8-.7 2.7-.8 2.6-.9 2.4-1 2.2-1 2.2-1.3 2-1.3 1.8-1.4 1.6-1.5 1.6-1.6 1.3-1.6 1.2-1.8 1-1.9 1-2 .6-2 .6-2.1.4-2.3.2-2.3.1H313l-2.1-.3-2-.4-2-.6-1.9-.7-1.7-1-1.8-1-1.6-1.2-1.5-1.4-1.5-1.6-1.4-1.7-1.3-2-1.3-2-1-2.1-1-2.3-1-2.4-.8-2.6-.7-2.6-.6-2.8-.4-3-.4-3-.3-3.2-.1-3.3-.1-3.4V94l.2-3.3.3-3.2.4-3 .4-3 .6-2.7.7-2.7.8-2.5 1-2.4 1-2.3 1-2.1 1.3-2 1.3-2 1.4-1.7 1.5-1.5 1.5-1.4 1.6-1.2 1.8-1 1.7-1 2-.7 1.9-.6 2-.4 2-.3zM190 36l-3.8.2-3.7.3-3.5.6-3.4.8-3.3 1-3 1.2-3 1.5-2.9 1.7-2.7 2-2.5 2-2.4 2.4-2.3 2.6-2.1 2.8-2 3-1.7 3.2-1.5 3.3-1.4 3.5-1.2 3.7-1 3.8-.8 4-.7 4.3-.4 4.4-.3 4.5-.1 4.8v4.7l.4 4.6.4 4.3.7 4.2.8 4 1 4 1.2 3.6 1.4 3.5 1.5 3.3 1.8 3.1 1.9 3 2 2.8 2.4 2.6 2.4 2.3 2.5 2.2 2.7 1.9 2.8 1.7 3 1.5 3.1 1.2 3.3 1 3.4.8 3.5.6 3.7.3 3.8.1 3.9-.1 3.7-.3 3.6-.6 3.4-.8 3.3-1 3.1-1.2 3-1.5 2.8-1.7 2.7-1.9 2.6-2.1 2.4-2.4 2.2-2.6 2.1-2.7 2-3 1.7-3.1 1.5-3.4 1.4-3.5 1.2-3.6 1-3.9.8-4 .7-4.2.4-4.4.3-4.6v-9.5l-.3-4.5-.4-4.5-.7-4.2-.8-4-1-3.9-1.2-3.7-1.4-3.5-1.5-3.3-1.7-3.2-2-3-2-2.7-2.3-2.6-2.4-2.4-2.6-2.1-2.7-2-2.8-1.6-3-1.5-3.1-1.2-3.3-1-3.4-.8-3.6-.6-3.7-.3zm0 16.8h2.5l2.3.3 2.2.4 2.1.5 2 .8 2 .8 1.9 1 1.7 1.3 1.7 1.3 1.5 1.6 1.5 1.6 1.3 1.9 1.3 2 1.1 2 1 2.4 1 2.4.8 2.5.7 2.7.6 2.8.5 3 .4 3.1.3 3.3.1 3.4v7l-.1 3.4-.3 3.3-.4 3-.5 3-.6 2.9-.7 2.7-.8 2.5-1 2.5-1 2.2-1.2 2.2-1.2 2-1.4 1.9-1.5 1.6-1.5 1.6-1.7 1.4-1.7 1.2-1.8 1-2 .9-2 .7-2.1.6-2.2.4-2.4.2-2.4.1h-2.3l-2.3-.3-2.2-.4-2.1-.6-2-.7-2-.9-1.8-1-1.8-1.2-1.6-1.4-1.6-1.6-1.4-1.6-1.4-1.9-1.2-2-1.2-2.2-1-2.2-1-2.5-.8-2.5-.7-2.7-.6-2.9-.5-3-.4-3-.3-3.3-.2-3.4v-7l.2-3.4.3-3.3.4-3 .5-3 .6-2.9.7-2.7.8-2.5 1-2.4 1-2.3 1.1-2.1 1.3-2 1.3-1.9 1.5-1.6 1.5-1.6 1.7-1.3 1.7-1.2 1.8-1 2-1 2-.7 2.1-.5 2.2-.4 2.3-.3z"/>
      <path fill="#ff0" d="M34.9 6.7H15.3v148.1h19.6v-52.7l6.8-7.3 6.8-7.3 4-4.2 5.6 8.2 5.8 8.2 5.7 8.2 5.7 8.2 5.7 8.2 5.7 8.2 5.7 8.2 5.8 8.2 4 6h24l-5.8-8.3-5.7-8.2-5.7-8.2-5.7-8.2-5.7-8.2-5.7-8.2-5.8-8.2-5.7-8.2-5.7-8.2-5.7-8.2-2.6-3.8 6.8-7.3 6.8-7.3 6.8-7.3 6.9-7.4 6.8-7.3 6.8-7.3 6.8-7.3 6.8-7.3 3.6-3.8H98.4L91.6 14l-6.8 7.3-6.8 7.4-6.8 7.3-6.8 7.3-6.8 7.4-6.8 7.3-6.8 7.3-6.8 7.4-2.3 2.5V6.7"/>
    </g>
  </g>
</svg>
